<?xml version="1.0" standalone="no"?><!DOCTYPE svg PUBLIC "-//W3C//DTD SVG 1.1//EN" "http://www.w3.org/Graphics/SVG/1.1/DTD/svg11.dtd"><svg t="1699594833864" class="icon" viewBox="0 0 1024 1024" version="1.1" xmlns="http://www.w3.org/2000/svg" p-id="1536" xmlns:xlink="http://www.w3.org/1999/xlink" width="200" height="200"><path d="M424.98 541.01l-87.02 87.02c-16.1 15.94-16.23 41.91-0.29 58.01s41.91 16.23 58.01 0.29c0.1-0.09 0.19-0.19 0.29-0.29l87.02-87.02L512 628.03c32.04 32.04 32.04 83.99 0 116.03L395.97 860.08c-32.04 32.04-83.99 32.04-116.03 0L163.92 744.05c-32.04-32.04-32.04-83.99 0-116.03L279.95 512c32.04-32.04 83.99-32.04 116.03 0l29 29.01z" fill="#2E3133" opacity=".3" p-id="1537"></path><path d="M599.02 482.99l87.02-87.02c15.94-16.1 15.81-42.07-0.29-58.01-15.99-15.83-41.74-15.83-57.73 0L541 424.98l-29-29.01c-32.04-32.04-32.04-83.99 0-116.03l116.03-116.03c32.04-32.04 83.99-32.04 116.03 0l116.03 116.03c32.04 32.04 32.04 83.99 0 116.03L744.06 512c-32.04 32.04-83.99 32.04-116.03 0l-29.01-29.01z" fill="#2E3133" p-id="1538"></path><path d="M192.93 192.93c16.02-16.02 41.99-16.02 58.01 0l58.01 58.01c16.1 15.94 16.23 41.91 0.29 58.01-15.94 16.1-41.91 16.23-58.01 0.29l-0.29-0.29-58.01-58.01c-16.02-16.02-16.02-41.99 0-58.01zM403.01 81.88c22.65 0 41.02 18.36 41.02 41.01V204.94c-0.08 22.66-18.51 40.96-41.17 40.88-22.54-0.08-40.8-18.33-40.88-40.88V122.9c0.01-22.66 18.37-41.02 41.03-41.02zM88.91 395.97c0-22.66 18.37-41.02 41.02-41.02h82.04c22.66 0.08 40.96 18.51 40.88 41.17-0.08 22.54-18.33 40.8-40.88 40.88h-82.04c-22.65 0-41.01-18.37-41.02-41.03zM826.1 826.09c16.02-16.02 16.02-41.99 0-58.01l-58.01-58.01c-16.02-16.02-41.99-16.02-58.01 0-16.02 16.02-16.02 41.99 0 58.01l58.01 58.01c16.02 16.02 41.99 16.02 58.01 0z m111.04-210.08c0-22.65-18.36-41.02-41.01-41.02H814.08c-22.66 0-41.02 18.37-41.02 41.02 0 22.66 18.37 41.02 41.02 41.02h82.04c22.65 0 41.02-18.36 41.02-41.01v-0.01zM623.05 930.1c22.65 0 41.02-18.36 41.02-41.01V807.04c0-22.66-18.37-41.02-41.02-41.02-22.66 0-41.02 18.37-41.02 41.02v82.04c0 22.66 18.36 41.02 41.02 41.02z" fill="#2E3133" opacity=".3" p-id="1539"></path></svg>